PathFileType	4	(X/Y/Z)	 C:\Users\z3550257\Dropbox\University\GitHubClones\TheiaOpensim\ExampleData\P01_procesed_with_single_calib\C3D_data\run_0_Theia.trc
DataRate	CameraRate	NumFrames	NumMarkers	Units	OrigDataRate	OrigDataStartFrame	OrigNumFrames
100	100	10	40	m	100	2163	3460
Frame#	Time	PELVIS1			LHIP			LKNEE			LANK			LMTP			RHIP			RKNEE			RANK			RMTP			CVJ			TORSO			LSHO			LELB			LWRIST			RSHO			RELB			RWRIST			LCALC			RCALC			LTOE			RTOE			LHAND			RHAND			HEAD_CENTRE			TORSO_LOW			LTHI			RTHI			LSHA			RSHA			L_LCALC			R_LCALC			LUA			RUA			LFRM			RFRM			HEAD_L			HEAD_R			TORSO_L			TORSO_R			PELVIS2			
		X1	Y1	Z1	X2	Y2	Z2	X3	Y3	Z3	X4	Y4	Z4	X5	Y5	Z5	X6	Y6	Z6	X7	Y7	Z7	X8	Y8	Z8	X9	Y9	Z9	X10	Y10	Z10	X11	Y11	Z11	X12	Y12	Z12	X13	Y13	Z13	X14	Y14	Z14	X15	Y15	Z15	X16	Y16	Z16	X17	Y17	Z17	X18	Y18	Z18	X19	Y19	Z19	X20	Y20	Z20	X21	Y21	Z21	X22	Y22	Z22	X23	Y23	Z23	X24	Y24	Z24	X25	Y25	Z25	X26	Y26	Z26	X27	Y27	Z27	X28	Y28	Z28	X29	Y29	Z29	X30	Y30	Z30	X31	Y31	Z31	X32	Y32	Z32	X33	Y33	Z33	X34	Y34	Z34	X35	Y35	Z35	X36	Y36	Z36	X37	Y37	Z37	X38	Y38	Z38	X39	Y39	Z39	X40	Y40	Z40	
2163	21.6300	0.708345	1.085278	-0.175809	0.730761	1.002400	-0.278092	0.932748	0.669778	-0.242595	0.800793	0.286630	-0.228940	0.909029	0.167457	-0.240577	0.710108	0.990427	-0.081827	0.556397	0.632004	-0.107522	0.383886	0.267733	-0.132888	0.456290	0.127277	-0.164146	0.778792	1.707874	-0.169751	0.790344	1.604034	-0.168436	0.714421	1.537418	-0.323163	0.521894	1.314387	-0.394434	0.760560	1.267229	-0.400246	0.796592	1.523146	-0.000948	0.758588	1.247199	0.109531	0.954556	1.301487	-0.038739	0.720037	0.244861	-0.214703	0.293692	0.251226	-0.141186	0.954309	0.146822	-0.246717	0.494122	0.098170	-0.169593	0.831867	1.269153	-0.405153	1.017995	1.331339	-0.065805	0.822630	1.737867	-0.170270	0.762950	1.360663	-0.177010	0.836299	0.825517	-0.334583	0.616118	0.808306	-0.021567	0.870227	0.477415	-0.300715	0.457891	0.453240	-0.056434	0.765649	0.243384	-0.262303	0.341944	0.228752	-0.102277	0.656380	1.409739	-0.362233	0.812127	1.382169	0.032049	0.647400	1.330142	-0.393314	0.837530	1.309918	0.033092	0.762845	1.834365	-0.240427	0.765249	1.829487	-0.090525	0.759197	1.612697	-0.314905	0.821490	1.595371	-0.021968	0.720434	0.996413	-0.179960	
2164	21.6400	0.710670	1.089306	-0.176356	0.733515	1.006291	-0.278426	0.927717	0.669295	-0.241592	0.828013	0.276801	-0.225689	0.947581	0.169304	-0.236663	0.711396	0.994499	-0.082319	0.551018	0.638944	-0.106420	0.371224	0.278009	-0.128648	0.433458	0.133156	-0.161938	0.779060	1.712209	-0.171082	0.791349	1.609087	-0.169765	0.714166	1.542246	-0.324168	0.519886	1.319636	-0.392073	0.758479	1.272670	-0.402444	0.798492	1.529248	-0.001788	0.760554	1.253221	0.108502	0.952646	1.311015	-0.043442	0.752050	0.227221	-0.210722	0.280066	0.267887	-0.136403	0.994736	0.153421	-0.242803	0.467849	0.100131	-0.168375	0.829669	1.274368	-0.409069	1.015088	1.341721	-0.071816	0.822805	1.742341	-0.171578	0.764859	1.365602	-0.177964	0.834792	0.826710	-0.334208	0.613987	0.814476	-0.021251	0.880847	0.472373	-0.298619	0.449035	0.462621	-0.053775	0.797376	0.230035	-0.258501	0.326935	0.241774	-0.098091	0.655156	1.414723	-0.362327	0.813620	1.388060	0.030476	0.645411	1.335442	-0.392880	0.837071	1.317475	0.030926	0.762743	1.838665	-0.241738	0.765104	1.833764	-0.091836	0.759323	1.617498	-0.316067	0.823376	1.600675	-0.023462	0.722455	1.000395	-0.180373	
2165	21.6500	0.712964	1.092446	-0.176889	0.736286	1.009094	-0.278569	0.921742	0.667408	-0.240775	0.854118	0.268456	-0.222981	0.983786	0.173834	-0.232791	0.712766	0.997891	-0.082595	0.548062	0.644280	-0.105616	0.358057	0.288577	-0.124802	0.410291	0.139926	-0.158695	0.779407	1.715469	-0.172410	0.792396	1.613101	-0.171051	0.714075	1.546068	-0.325250	0.518494	1.323724	-0.390357	0.756993	1.277208	-0.404795	0.800046	1.534266	-0.002602	0.761837	1.258283	0.107689	0.950491	1.319000	-0.047354	0.783711	0.211599	-0.207595	0.266412	0.284606	-0.132382	1.032320	0.162805	-0.238726	0.441230	0.103562	-0.165634	0.828082	1.278685	-0.412853	1.011776	1.350684	-0.077178	0.823038	1.745766	-0.172881	0.766693	1.369521	-0.178899	0.833005	0.826860	-0.333845	0.613273	0.819228	-0.020955	0.890518	0.467341	-0.296882	0.441406	0.471302	-0.051417	0.828524	0.218661	-0.255360	0.311559	0.255382	-0.094250	0.654333	1.418670	-0.362708	0.814639	1.392902	0.029111	0.643975	1.339729	-0.392940	0.836111	1.323717	0.028975	0.762671	1.841836	-0.243126	0.764926	1.837000	-0.093220	0.759858	1.621251	-0.317261	0.824935	1.604952	-0.024841	0.724526	1.003492	-0.180582	
2166	21.6600	0.715219	1.094630	-0.177372	0.738993	1.010749	-0.278508	0.915162	0.664305	-0.240116	0.878562	0.261573	-0.220813	1.016945	0.180665	-0.229079	0.714296	1.000533	-0.082619	0.547413	0.647930	-0.105046	0.344302	0.299656	-0.121518	0.386871	0.147710	-0.154301	0.779832	1.717686	-0.173745	0.793453	1.616006	-0.172276	0.714208	1.548758	-0.326374	0.517693	1.326600	-0.389320	0.756084	1.280779	-0.407370	0.801250	1.538092	-0.003374	0.762375	1.262284	0.107097	0.948110	1.325447	-0.050448	0.814301	0.198094	-0.205312	0.252577	0.301502	-0.129324	1.066348	0.174488	-0.234638	0.414582	0.108631	-0.161139	0.827092	1.282120	-0.416501	1.008108	1.358151	-0.081817	0.823340	1.748160	-0.174184	0.768413	1.372347	-0.179739	0.831043	0.826017	-0.333471	0.613958	0.822485	-0.020627	0.899136	0.462387	-0.295484	0.434901	0.479284	-0.049415	0.858385	0.209308	-0.252890	0.295747	0.269784	-0.090890	0.653924	1.421483	-0.363388	0.815168	1.396586	0.027979	0.643068	1.342951	-0.393596	0.834624	1.328605	0.027278	0.762667	1.843938	-0.244565	0.764763	1.839210	-0.094654	0.760782	1.623849	-0.318472	0.826124	1.608164	-0.026080	0.726645	1.005641	-0.180564	
2167	21.6700	0.717409	1.095827	-0.177767	0.741511	1.011260	-0.278255	0.908399	0.660272	-0.239556	0.900736	0.256044	-0.219143	1.046333	0.189129	-0.225690	0.716074	1.002363	-0.082386	0.548871	0.649910	-0.104613	0.330102	0.311417	-0.118791	0.363417	0.156631	-0.148812	0.780336	1.718911	-0.175104	0.794487	1.617770	-0.173440	0.714639	1.550244	-0.327514	0.517443	1.328256	-0.388889	0.755714	1.283312	-0.410184	0.802125	1.540657	-0.004131	0.762111	1.265176	0.106716	0.945521	1.330356	-0.052718	0.842938	0.186718	-0.203755	0.238629	0.318689	-0.127123	1.096118	0.187682	-0.230775	0.388270	0.115434	-0.154970	0.826654	1.284673	-0.420065	1.004168	1.364016	-0.085671	0.823720	1.749563	-0.175499	0.769984	1.374045	-0.180441	0.828977	0.824263	-0.333060	0.615988	0.824253	-0.020212	0.906568	0.457598	-0.294378	0.429480	0.486601	-0.047721	0.886093	0.201901	-0.251035	0.279698	0.285100	-0.087961	0.653943	1.423112	-0.364333	0.815202	1.399046	0.027078	0.642665	1.345067	-0.394827	0.832633	1.332155	0.025902	0.762762	1.845041	-0.246042	0.764646	1.840429	-0.096125	0.762022	1.625242	-0.319695	0.826951	1.610298	-0.027185	0.728792	1.006812	-0.180320	
2168	21.6800	0.719507	1.096039	-0.178041	0.743707	1.010685	-0.277840	0.901910	0.655635	-0.239015	0.919996	0.251637	-0.217919	1.071264	0.198265	-0.222779	0.718175	1.003340	-0.081913	0.552186	0.650306	-0.104222	0.315821	0.323940	-0.116469	0.340250	0.166779	-0.142481	0.780913	1.719189	-0.176502	0.795463	1.618399	-0.174562	0.715423	1.550524	-0.328664	0.517710	1.328711	-0.388933	0.755849	1.284738	-0.413202	0.802689	1.541934	-0.004922	0.761016	1.266955	0.106512	0.942754	1.333705	-0.054205	0.868610	0.177349	-0.202769	0.224870	0.336269	-0.125430	1.121019	0.201277	-0.227377	0.362632	0.123971	-0.147530	0.826713	1.286321	-0.423630	1.000075	1.368153	-0.088710	0.824172	1.750016	-0.176835	0.771375	1.374619	-0.181010	0.826860	0.821706	-0.332583	0.619264	0.824599	-0.019674	0.912663	0.453038	-0.293498	0.425172	0.493302	-0.046222	0.910685	0.196194	-0.249706	0.263851	0.301333	-0.085270	0.654402	1.423554	-0.365486	0.814744	1.400260	0.026370	0.642753	1.346043	-0.396501	0.830209	1.334407	0.024914	0.762962	1.845200	-0.247558	0.764582	1.840694	-0.097636	0.763466	1.625438	-0.320934	0.827459	1.611361	-0.028190	0.730941	1.007012	-0.179876	
2169	21.6900	0.721488	1.095298	-0.178171	0.745494	1.009110	-0.277301	0.896109	0.650679	-0.238419	0.935720	0.247975	-0.217089	1.091162	0.206859	-0.220436	0.720641	1.003444	-0.081237	0.557115	0.649241	-0.103795	0.301997	0.337202	-0.114317	0.317743	0.178192	-0.135712	0.781543	1.718545	-0.177944	0.796344	1.617929	-0.175674	0.716578	1.549649	-0.329848	0.518467	1.327992	-0.389316	0.756461	1.284998	-0.416356	0.802942	1.541939	-0.005804	0.759086	1.267639	0.106428	0.939843	1.335438	-0.054995	0.890255	0.169696	-0.202218	0.211811	0.354320	-0.123781	1.140592	0.213878	-0.224596	0.337920	0.134158	-0.139452	0.827221	1.287037	-0.427288	0.995973	1.370435	-0.090926	0.824681	1.749542	-0.178199	0.772560	1.374105	-0.181502	0.824768	0.818456	-0.332015	0.623660	0.823632	-0.018998	0.917271	0.448689	-0.292785	0.422077	0.499426	-0.044772	0.931198	0.191745	-0.248822	0.248806	0.318372	-0.082564	0.655295	1.422845	-0.366793	0.813794	1.400244	0.025801	0.643325	1.345849	-0.398429	0.827449	1.335402	0.024348	0.763255	1.844439	-0.249119	0.764556	1.840031	-0.099191	0.764986	1.624492	-0.322201	0.827702	1.611367	-0.029146	0.733068	1.006277	-0.179269	
2170	21.7000	0.723339	1.093642	-0.178157	0.746858	1.006618	-0.276671	0.891286	0.645578	-0.237727	0.947373	0.244549	-0.216613	1.105617	0.213573	-0.218645	0.723457	1.002675	-0.080404	0.563470	0.646822	-0.103258	0.289259	0.351091	-0.112083	0.296274	0.190851	-0.128962	0.782189	1.716974	-0.179421	0.797094	1.616407	-0.176812	0.718066	1.547696	-0.331105	0.519691	1.326119	-0.389958	0.757533	1.284059	-0.419579	0.802849	1.540717	-0.006810	0.756335	1.267260	0.106392	0.936826	1.335478	-0.055193	0.906882	0.163294	-0.202027	0.200092	0.372892	-0.121745	1.154576	0.223940	-0.222428	0.314295	0.145844	-0.131447	0.828146	1.286792	-0.431100	0.992004	1.370750	-0.092321	0.825209	1.748133	-0.179585	0.773518	1.372547	-0.181993	0.822804	0.814601	-0.331351	0.629038	0.821467	-0.018180	0.920265	0.444414	-0.292202	0.420350	0.504984	-0.043224	0.946795	0.187942	-0.248322	0.235220	0.336041	-0.079617	0.656596	1.421033	-0.368228	0.812341	1.399043	0.025309	0.644378	1.344467	-0.400443	0.824443	1.335160	0.024184	0.763609	1.842751	-0.250726	0.764540	1.838443	-0.100792	0.766464	1.622482	-0.323516	0.827723	1.610332	-0.030109	0.735158	1.004647	-0.178537	
2171	21.7100	0.725059	1.091105	-0.178013	0.747860	1.003273	-0.275976	0.887572	0.640360	-0.236956	0.954563	0.240787	-0.216446	1.114426	0.217141	-0.217268	0.726547	1.001033	-0.079465	0.571152	0.643105	-0.102530	0.278227	0.365445	-0.109564	0.276208	0.204683	-0.122634	0.782794	1.714442	-0.180911	0.797678	1.613874	-0.178003	0.719797	1.544728	-0.332475	0.521358	1.323089	-0.390867	0.759058	1.281925	-0.422832	0.802348	1.538339	-0.007944	0.752774	1.265849	0.106326	0.933737	1.333747	-0.054886	0.917698	0.157570	-0.202170	0.190383	0.391995	-0.119054	1.162917	0.229990	-0.220704	0.291879	0.158855	-0.124118	0.829479	1.285570	-0.435074	0.988286	1.369026	-0.092889	0.825706	1.745749	-0.180980	0.774238	1.369988	-0.182557	0.821095	0.810193	-0.330613	0.635273	0.818194	-0.017212	0.921556	0.439963	-0.291736	0.420176	0.509953	-0.041449	0.956865	0.184091	-0.248159	0.223696	0.354140	-0.076297	0.658255	1.418157	-0.369802	0.810356	1.396723	0.024852	0.645898	1.341888	-0.402459	0.821249	1.333676	0.024362	0.763983	1.840097	-0.252369	0.764506	1.835910	-0.102431	0.767817	1.619480	-0.324889	0.827539	1.608269	-0.031117	0.737203	1.002153	-0.177721	
2172	21.7200	0.726652	1.087703	-0.177759	0.748618	0.999122	-0.275242	0.884927	0.634940	-0.236184	0.957092	0.236166	-0.216519	1.117599	0.216606	-0.216088	0.729770	0.998496	-0.078473	0.580146	0.638080	-0.101520	0.269424	0.380077	-0.106643	0.257900	0.219571	-0.116976	0.783293	1.710893	-0.182385	0.798075	1.610352	-0.179247	0.721650	1.540767	-0.333976	0.523440	1.318871	-0.392145	0.761040	1.278636	-0.426106	0.801373	1.534875	-0.009170	0.748399	1.263444	0.106165	0.930610	1.330184	-0.054101	0.922233	0.151959	-0.202641	0.183272	0.411566	-0.115666	1.165755	0.230906	-0.219147	0.270838	0.173018	-0.117820	0.831234	1.283367	-0.439159	0.984885	1.365240	-0.092617	0.826116	1.742323	-0.182360	0.774724	1.366446	-0.183227	0.819763	0.805255	-0.329856	0.642249	0.813854	-0.016083	0.921105	0.435038	-0.291394	0.421726	0.514273	-0.039353	0.961099	0.179556	-0.248279	0.214692	0.372482	-0.072598	0.660207	1.414223	-0.371558	0.807805	1.393352	0.024418	0.647858	1.338118	-0.404500	0.817874	1.330929	0.024796	0.764335	1.836420	-0.254029	0.764428	1.832391	-0.104086	0.769023	1.615523	-0.326319	0.827127	1.605182	-0.032174	0.739194	0.998809	-0.176858	
